<svg xmlns="http://www.w3.org/2000/svg" xmlns:xlink="http://www.w3.org/1999/xlink" width="585" height="336" viewBox="0 0 585 336"><defs><clipPath id="a"><path d="M78.4,15.964A13.833,13.833,0,0,0,57.732,3.935,36.6,36.6,0,0,0,40.8,0C30.1,0,20.818,4.129,16.213,10.17a11.619,11.619,0,1,0-4.6,22.29,11.709,11.709,0,0,0,1.571-.109,13.833,13.833,0,0,0,21.593,10.1A19.6,19.6,0,0,0,68.461,29.239,13.839,13.839,0,0,0,78.4,15.964Z" transform="translate(13.347 0) rotate(16)" fill="#f6f6f6"/></clipPath><clipPath id="b"><rect width="33.536" height="33.536" fill="#008454"/></clipPath><clipPath id="c"><path d="M0,28c.068-4.132,5.388-12.674,11.578-14.532a16.471,16.471,0,0,1,16.013-11c3.124,0,7.818,1.729,10.385,3.118A18.09,18.09,0,0,1,51.074,0c8.372,0,14.073,8.137,12.742,16.393,3.728-.8,11.053,3.838,11.053,13.849s1.961,20.317-13.676,16.58c-1.785,8.136-4.676,14.847-13.356,14.847-7,0-13.425-2.986-16.449-8.791-1.129-2.528-5.313-3.635-8.017-3.467H18.662l-5.581-.991C5.436,42.916.7,42.093,0,28Z" fill="#edf2ef"/></clipPath></defs><g transform="translate(16391 -2324)"><g transform="translate(-16444.488 1620.488)"><path d="M1481.847,224.259h34.66c18.655,0,33.917,16.619,33.917,36.931h0c0,20.312-15.262,36.932-33.917,36.932H1223.432c-30.207,0-54.921-26.912-54.921-59.8h0c0-32.89,24.714-59.8,54.921-59.8h0c12.771,0,23.222-11.379,23.222-25.286h0c0-13.908-10.45-25.286-23.222-25.286h-27.948c-13.279,0-24.142-11.83-24.142-26.289h0c0-14.459,10.864-26.289,24.142-26.289h35.341c5.169,0,9.4-4.606,9.4-10.235h0c0-5.629-4.229-10.235-9.4-10.235H1224.6c-3.567,0-6.487-3.179-6.487-7.063h0c0-3.885,2.92-7.064,6.487-7.064h40.879c8.609,0,9.568,11.075,31.313,11.075h50.426c4.657,0,8.465,4.148,8.465,9.217h0c0,5.069-3.809,9.216-8.465,9.216h-8.128c-6.746,0-12.264,6.011-12.264,13.355h0c0,7.345,5.519,13.355,12.264,13.355h24.465c33.036,0,37.7,9.4,43.487,28.1s35.835,20.2,35.835,20.2h41.088c10.165,0,18.483,9.057,18.483,20.126h0c0,11.07-8.317,20.126-18.483,20.126h-2.116c-9.778,0-17.777,8.712-17.777,19.358h0c0,10.646,8,19.358,17.777,19.358ZM1206.391,54.9a6.794,6.794,0,0,0,6.487-7.063,6.511,6.511,0,1,0-12.974,0A6.793,6.793,0,0,0,1206.391,54.9Z" transform="translate(-1021.022 701.742)" fill="#eaefee" fill-rule="evenodd" opacity="0.6"/><g transform="translate(172.718 763.97)"><g transform="translate(0 11.564)"><path d="M-331.243,88.517l.473,3.671a4.115,4.115,0,0,1-2.937-1.16,1.106,1.106,0,0,1-.211-1.141C-333.619,89.031-332.41,88.66-331.243,88.517Z" transform="translate(631.401 121.293)" fill="none"/><g transform="translate(213.411 42.785) rotate(-14)"><path d="M87.5,18.6A15.988,15.988,0,0,0,71.619,2.807a17.127,17.127,0,0,0-8.371,2.265A37.421,37.421,0,0,0,44.534.007C35.589-.192,24.1,4.051,18.9,11.408a9.624,9.624,0,0,0-5.761-.64A13.131,13.131,0,0,0,0,24.287C0,32.1,5.318,38.348,12.556,38.348a21.045,21.045,0,0,0,2.323-.15c.745,8.557,8.75,14.476,14.866,14.092a15.277,15.277,0,0,0,9.107-2.532,21.156,21.156,0,0,0,15.972,6.924c12.054,0,21.31-9.334,21.559-22.284A16.173,16.173,0,0,0,87.5,18.6Z" transform="translate(15.624 0) rotate(16)" fill="#fff" stroke="#28c76f" stroke-width="0.5"/><g transform="translate(3.046 3.232)"><path d="M82.592,16.817A14.573,14.573,0,0,0,60.819,4.146,38.555,38.555,0,0,0,42.978,0C31.707,0,21.931,4.349,17.08,10.713A12.24,12.24,0,1,0,12.239,34.2a12.336,12.336,0,0,0,1.655-.115A14.573,14.573,0,0,0,36.642,44.722,20.646,20.646,0,0,0,72.122,30.8,14.579,14.579,0,0,0,82.592,16.817Z" transform="translate(14.061 0) rotate(16)" fill="#f2f2f2"/><g transform="translate(2.618 0.836)" clip-path="url(#a)"><g transform="translate(14.966 16.73) rotate(7)"><path d="M28.866,0H2.782A2.785,2.785,0,0,0,0,2.782v20.4a2.785,2.785,0,0,0,2.782,2.782h9.688l-.927,1.854H10.261a.927.927,0,1,0,0,1.854H21.387a.927.927,0,0,0,0-1.854H20.105l-.927-1.854h9.688a2.785,2.785,0,0,0,2.782-2.782V2.782A2.785,2.785,0,0,0,28.866,0Zm1.593,22.773-29.3.009V2.835A1.568,1.568,0,0,1,2.855,1.1l26.063-.053a1.579,1.579,0,0,1,1.634,1.8Z" transform="translate(0 0)" fill="#28c76f"/><path d="M10.269,1.087v9.059L9.74,9.458l-.1-.312-.094-.3-.138-.515q-.036-.08-.072-.156t-.072-.156L8.8,7.254l-.384-.587q-.072-.08-.156-.178A1.8,1.8,0,0,0,8.066,6.3a2.866,2.866,0,0,1-.92.913,2.69,2.69,0,0,1-.605.275,2.2,2.2,0,0,1-.663.1L5.5,7.566a1.059,1.059,0,0,1-.428-.13q-.37-.145-.667-.286a3.426,3.426,0,0,1-.529-.308,5.062,5.062,0,0,1-.54-.58q-.33-.4-.757-1.015a4.937,4.937,0,0,1-.388-.725q-.214-.471-.46-1.174T1.326,2.1q-.159-.544-.239-.841l.783.3.616,1.7q.058.152.145.337a3.168,3.168,0,0,0,.232.4L2.855,4l.384.544-.007-.014a8.139,8.139,0,0,0,.761.67,5.656,5.656,0,0,0,.631.424l-.007-.007a3.731,3.731,0,0,0,.631.192,3.255,3.255,0,0,0,.674.069,1.67,1.67,0,0,0,.6-.1,1.14,1.14,0,0,0,.42-.272,1.083,1.083,0,0,0,.246-.413,1.641,1.641,0,0,0,.08-.522,2.749,2.749,0,0,0-.062-.587,2.131,2.131,0,0,0-.17-.5,1.193,1.193,0,0,0-.25-.348.431.431,0,0,0-.294-.13q-.065,0-.225.225a2.243,2.243,0,0,1-.438.475.684.684,0,0,1-.409.163,2.645,2.645,0,0,1-.6-.062,1.231,1.231,0,0,1-.453-.2l.007.007a1.018,1.018,0,0,1-.536-.928,2.741,2.741,0,0,1,.21-.8.594.594,0,0,1,.185-.246,1.178,1.178,0,0,1,.283-.167,1.476,1.476,0,0,1,.333-.094A2.136,2.136,0,0,1,5.2,1.355a3.107,3.107,0,0,1,1.921.652l.254.268.312.362a2.483,2.483,0,0,1,.326.482,3.133,3.133,0,0,1,.225.558,4.142,4.142,0,0,1,.13.605,4.5,4.5,0,0,1,.043.623q.116.21.21.373t.185.315q.091.152.185.315l.217.373v-5.2H1.065L0,0H11.3l1.08,1.087Z" transform="translate(2.587 6.811) rotate(-22)" fill="#008454"/><path d="M5.163,5.14l.1.233a.83.83,0,0,1,.094.094.83.83,0,0,0,.094.094q.1.038.188.079t.188.079H5.815l.345.09A2.4,2.4,0,0,1,7.5,6.874L7.5,6.866a2.857,2.857,0,0,1,.563,1.643l-.023.158a1.971,1.971,0,0,1-.165.732,2.513,2.513,0,0,1-.465.709,3.642,3.642,0,0,1-.762.623,4.716,4.716,0,0,1-1.054.48,1.149,1.149,0,0,0,.094.083,1.149,1.149,0,0,1,.094.083q.705.428,1.238.81a8.915,8.915,0,0,1,.863.69l1.4,1.291.3,1.291-.165.075a10.841,10.841,0,0,0-1.493-1.384,16.693,16.693,0,0,0-1.756-1.182q-.533-.3-.96-.507t-.743-.334q-.315-.128-.788-.278t-1.133-.33l-1.246-2.6q.428.24.807.42a5.674,5.674,0,0,0,.709.285L2.8,9.62l.668.128L4.12,9.8a2.16,2.16,0,0,0,.855-.128l.818-.308a3.14,3.14,0,0,0,.33-.259,6.655,6.655,0,0,0,.488-.484L6.6,8.637a.643.643,0,0,0,.12-.413,1.6,1.6,0,0,0-.041-.349A1.535,1.535,0,0,0,6.543,7.5a.8.8,0,0,0-.45-.435,1.225,1.225,0,0,0-.51-.158,1.177,1.177,0,0,0-.285.038,1.327,1.327,0,0,1-.1.484,1.663,1.663,0,0,1-.274.431l-.375.375a1.682,1.682,0,0,1-1.429.334,1.709,1.709,0,0,1-.4-.146.864.864,0,0,1-.368-.615l.008.008a1.169,1.169,0,0,1,.24-.908L2.821,6.6l.308-.36a1.93,1.93,0,0,1,.341-.214A4.289,4.289,0,0,1,4.09,5.77a1.165,1.165,0,0,0,.263-.09.819.819,0,0,0-.225-.293h.008L3.857,5.14H1.088L0,4.015H6.131L6.3,3.992l.428-.023a.642.642,0,0,0,.236-.12.855.855,0,0,0,.206-.24l-.008.023A.415.415,0,0,1,7.2,3.549a.415.415,0,0,0,.038-.083q-.023-.113-.458-.278a2.14,2.14,0,0,0-.492-.131,3.421,3.421,0,0,0-.469-.034l-.75.015H4.517l-.428.075a1.41,1.41,0,0,0-.375.03h-.27a4.271,4.271,0,0,1-1.182-.169,2.5,2.5,0,0,1-1.032-.582V2.4a1.411,1.411,0,0,1-.244-.266,2.233,2.233,0,0,1-.341-.713,1.375,1.375,0,0,1-.053-.364A1.55,1.55,0,0,1,.619.75,1.208,1.208,0,0,1,.69.518a1.009,1.009,0,0,1,.09-.2,1.115,1.115,0,0,1,.15-.2l.15-.068L1.373,0h.18l.353.09a1.561,1.561,0,0,0-.439.394.748.748,0,0,0-.154.4l.053.368a1.021,1.021,0,0,0,.158.113q.12.075.263.158l.533.165.255.023L3.834,1.6,5.44,1.553a2.66,2.66,0,0,1,1.508.375,2.261,2.261,0,0,1,.458.323,2.13,2.13,0,0,1,.345.413l-.008-.008A2.144,2.144,0,0,1,8.127,3.9l-.008.113H9.365L10.483,5.14Z" transform="translate(21.162 3.657) rotate(25)" fill="#008454"/><path d="M4.115.607V.842l.014,0,.014,0a1.218,1.218,0,0,1,.52.131,2.5,2.5,0,0,1,.544.358,2.154,2.154,0,0,1,.53.7,1.976,1.976,0,0,1,.186.858,1.025,1.025,0,0,1-.069.38.957.957,0,0,1-.184.3.845.845,0,0,1-.267.2.751.751,0,0,1-.322.071.737.737,0,0,1-.562-.287L4.41,3.354l-.024-.178L4.41,3.01a.584.584,0,0,1,.051-.127.666.666,0,0,1,.071-.1L4.7,2.626,5,2.577a.625.625,0,0,1,.429.166l.012.016q-.008-.073-.022-.152a1.185,1.185,0,0,0-.034-.144.962.962,0,0,0-.3-.441,1.429,1.429,0,0,0-.17-.146,1.907,1.907,0,0,0-.19-.121,1.279,1.279,0,0,0-.271-.1,1.23,1.23,0,0,0-.291-.034l-.065,0V5.583l-.283-.3-.15-.437a.969.969,0,0,0-.138-.267q-.105-.154-.271-.352a1.842,1.842,0,0,0-.6-.566L2.411,3.52l0,0q-.081-.032-.16-.069T2.1,3.386a2.112,2.112,0,0,0-.6-.134l-.72-.89q.206-.154.445-.322T1.74,1.7q.251-.154.467-.273t.4-.2q.17-.077.4-.164t.52-.184V.607H.619L0,0H6.04l.591.607Zm-.6,1.056a2.554,2.554,0,0,0-.273.1,2.486,2.486,0,0,0-.233.113L2.5,2.16q-.081.057-.164.111t-.16.111l-.061.042-.045.034-.045.034-.061.047q.121.053.227.1a1.073,1.073,0,0,1,.178.1h0l.077.049.077.053.105.073.125.1q.105.085.227.2a1.788,1.788,0,0,1,.227.253l.15.2q.081.111.162.229Z" transform="matrix(0.978, 0.208, -0.208, 0.978, 8.161, 14.895)" fill="#008454"/></g></g><g transform="translate(55.85 16.432) rotate(31)"><rect width="33.008" height="33.008" fill="none"/><g transform="translate(4.127 4.126)"><path d="M24.024,16.094a2.084,2.084,0,0,1-.055-.712c-.012-.89.167-1.824-.666-2.5.11-.126.172-.2.232-.267a1.449,1.449,0,0,0-.389-2.328.666.666,0,0,1-.377-.59A10.253,10.253,0,0,0,16.608.966,18.779,18.779,0,0,0,13.569.1c-.138-.038-.278-.067-.418-.1H11.6c-.472.087-.945.165-1.415.263A10.5,10.5,0,0,0,1.981,9.7a.638.638,0,0,1-.372.588,1.453,1.453,0,0,0-.392,2.33c.061.071.124.141.183.208a3.7,3.7,0,0,0-.625,2.7,2.706,2.706,0,0,1-.252.89C.363,16.848.176,17.27,0,17.7v.967a.412.412,0,0,1,.079.117,3.516,3.516,0,0,0,2.845,2.812.715.715,0,0,1,.369.264,1.32,1.32,0,0,0,1.162.567c.419-.013.838,0,1.257-.006A1.2,1.2,0,0,0,6.943,21.2q.016-3.021,0-6.042a1.2,1.2,0,0,0-1.235-1.214c-.338-.009-.678.016-1.015,0a1.405,1.405,0,0,0-1.451.653.357.357,0,0,1-.182.142c-.5.168-1,.327-1.509.494-.006-.115-.017-.241-.018-.366,0-.225-.015-.453,0-.677a1.394,1.394,0,0,1,.993-1.063,1.647,1.647,0,0,0,1.3-1.284,1.312,1.312,0,0,0-.662-1.444c-.512-.275-.5-.623-.411-1.064.036-.189.044-.384.08-.574a9.7,9.7,0,0,1,19.212.905c.018.241.038.441-.25.6a1.509,1.509,0,0,0-.871,1.579,1.679,1.679,0,0,0,1.441,1.3.683.683,0,0,1,.365.167,2.02,2.02,0,0,1,.453,1.916c-.495-.163-.966-.312-1.432-.475a.527.527,0,0,1-.26-.187,1.334,1.334,0,0,0-1.322-.622c-.369.021-.741,0-1.112,0a1.214,1.214,0,0,0-1.248,1.253q-.01,2.973,0,5.945a1.208,1.208,0,0,0,1.269,1.28c.592.008,1.184,0,1.824,0,0,.19,0,.4,0,.6,0,.742-.237.974-.988.976-.918,0-1.837,0-2.755,0H15.035c.015-.181.031-.308.036-.435a1.268,1.268,0,0,0-1.44-1.5c-.661,0-1.321-.013-1.982,0a1.237,1.237,0,0,0-1.2,1.163,1.509,1.509,0,0,0,.86,1.525H20.4a1.868,1.868,0,0,0,1.245-2.13c-.009-.079.009-.162,0-.24-.093-.54.1-.78.665-.944a3.364,3.364,0,0,0,2.331-2.474c.03-.1.076-.2.115-.3V17.7C24.508,17.164,24.239,16.64,24.024,16.094ZM4.308,14.683c.45.006.9.015,1.351,0,.392-.016.553.14.547.537-.014,1,0,2,0,2.993,0,.965-.012,1.931.006,2.9.008.409-.13.6-.557.576-.449-.022-.9-.008-1.351,0a.384.384,0,0,1-.445-.438q0-3.065,0-6.13C3.854,14.8,4.014,14.68,4.308,14.683Zm-1.223.836V20.81A2.5,2.5,0,0,1,.763,18.387,2.592,2.592,0,0,1,3.086,15.519Zm.023-3.91a.732.732,0,0,1-.78.783.788.788,0,0,1-.04-1.575A.738.738,0,0,1,3.108,11.609Zm19.3.781a.729.729,0,0,1-.759-.8.743.743,0,0,1,.84-.772.731.731,0,0,1,.733.826A.729.729,0,0,1,22.407,12.39ZM13.836,24c-.353-.014-.707,0-1.06,0-.369,0-.739-.009-1.108,0-.448.013-.468-.276-.469-.61s.025-.586.444-.583c.738.006,1.477.01,2.216,0,.446-.007.469.271.473.607C14.337,23.769,14.265,24.017,13.836,24Zm6.594-2.322c-.467-.007-.933-.01-1.4,0-.353.007-.485-.16-.482-.5.009-1,0-2,0-2.993,0-.981.013-1.963-.006-2.944-.008-.424.163-.579.574-.559.434.021.869.01,1.3,0,.315-.005.481.12.481.452q0,3.04,0,6.082C20.9,21.542,20.749,21.682,20.43,21.678Zm1.239-.827V15.537a2.531,2.531,0,0,1,2.324,2.4A2.627,2.627,0,0,1,21.669,20.851Z" transform="translate(0 0)" fill="#008555"/><path d="M11.453,5.709A5.839,5.839,0,0,0,5.769,0,5.831,5.831,0,0,0,0,5.683a5.836,5.836,0,0,0,5.682,5.77A5.83,5.83,0,0,0,11.453,5.709ZM.556,5.686A5.076,5.076,0,0,1,5.7.555,5.071,5.071,0,0,1,10.9,5.7a5.076,5.076,0,0,1-5.212,5.2A5.071,5.071,0,0,1,.556,5.686Z" transform="translate(6.651 3.916)" fill="#008555"/><path d="M.767,0H0V.771H.767Z" transform="translate(10.227 17.989)" fill="#008555"/><path d="M0,.772H.753V0H0Z" transform="translate(12.01 17.99)" fill="#008555"/><path d="M.758.772V0H0V.772Z" transform="translate(13.767 17.999)" fill="#008555"/><path d="M5.544,2.641,1.491.147A.978.978,0,0,0,0,.98V5.968A.978.978,0,0,0,1.491,6.8L5.544,4.307A.978.978,0,0,0,5.544,2.641Z" transform="translate(9.873 6.186)" fill="#008555"/></g></g></g></g><g transform="translate(0 35.917)"><path d="M-323.948,24.762h-44.288a5.641,5.641,0,0,0-5.638,5.641v25.95a5.641,5.641,0,0,0,5.638,5.641h31.414l11.9,8.447V61.994h.973a5.642,5.642,0,0,0,5.641-5.641V30.4A5.642,5.642,0,0,0-323.948,24.762Z" transform="translate(383.542 -8.546)" fill="#fff" stroke="#28c76f" stroke-width="0.5"/><path d="M-326.937,24.946l-41.125.4a5.2,5.2,0,0,0-5.286,5.111l-.211,22.183a5.2,5.2,0,0,0,5.286,5.111h30.719l8.356,5.291V57.747l2.429-.06c2.92,0,4.909-2.625,4.909-5.447l.21-22.183A5.2,5.2,0,0,0-326.937,24.946Z" transform="translate(384.98 -6.491)" fill="#f2f2f2"/><path d="M538.692,159.457c0-1.278,0-2.4,0-3.517,0-.994-.175-1.168-1.15-1.169-2.894,0-5.787,0-8.681,0-1.281,0-1.844-.562-1.845-1.835q0-7.614,0-15.228c0-1.23.562-1.781,1.81-1.782q13.647,0,27.294,0c1.249,0,1.806.549,1.807,1.783q.005,7.651,0,15.3a1.563,1.563,0,0,1-1.774,1.759c-2.869.006-5.738-.014-8.607.019a2.985,2.985,0,0,0-1.375.363c-2.22,1.25-4.412,2.548-6.615,3.827C539.324,159.112,539.088,159.237,538.692,159.457Zm-1.119-8.5a5.126,5.126,0,0,0,.514,0,5.483,5.483,0,0,0,3.39-1.588.735.735,0,1,0-.98-1.095c-.17.14-.336.287-.514.417a4.177,4.177,0,0,1-4.882.021,4.1,4.1,0,0,1-1.527-4.563,4.155,4.155,0,0,1,6.828-1.815.729.729,0,0,0,1.159,0c.344-.4.188-.778-.162-1.092a7.16,7.16,0,0,0-.742-.6,5.637,5.637,0,1,0-3.085,10.323Zm11.287.02a5.358,5.358,0,0,0,3.849-1.556,1.044,1.044,0,0,0,.238-.884.913.913,0,0,0-.729-.439c-.243,0-.5.264-.728.445a4.153,4.153,0,1,1-.035-6.426c.457.363.922.826,1.428.177s-.139-.994-.525-1.375a1.535,1.535,0,0,0-.176-.133,5.639,5.639,0,0,0-8.682,6.345A5.594,5.594,0,0,0,548.86,150.976Z" transform="translate(-527.012 -135.923)" fill="#28c76f"/><g transform="translate(20.13 18.455)" clip-path="url(#b)"><g transform="translate(3.844 3.843)"><path d="M23.479.3H3.06A3.061,3.061,0,0,0,0,3.361V18.308a3.062,3.062,0,0,0,3.06,3.06h9.6v3.524H8.214a.612.612,0,0,0,0,1.224H18.619a.612.612,0,0,0,0-1.224H13.882V21.368h9.6a3.062,3.062,0,0,0,3.06-3.06V3.361A3.061,3.061,0,0,0,23.479.3Zm1.836,18.007a1.842,1.842,0,0,1-1.836,1.836H3.06a1.842,1.842,0,0,1-1.836-1.836V3.361A1.841,1.841,0,0,1,3.06,1.525H23.485a1.841,1.841,0,0,1,1.836,1.836V18.308Zm0,0" transform="translate(0 -0.301)" fill="#008454"/><path d="M3558.794-350.486l1.453,5.828,1.054-2,2.022,2.079,1.258-1.223-2.022-2.079,2.022-1Z" transform="translate(-3541.084 362.857)" fill="#008454"/><path d="M-4694.984-2787.363v9.878l6.392-4.956-6.392-4.922" transform="translate(4706.302 2792.728)" fill="#008454"/></g></g></g><g transform="translate(52.772 83.346)"><g transform="translate(0 0)"><g transform="translate(0 37.686)"><path d="M-428.869,93.779c-1.147-1.677-4.589-5.807-3.757-7.667,1.791-4,16.05-6.888,29.223,8.6" transform="translate(472.436 -3.389)" fill="#0e77ff"/><path d="M-379.289,128.733c-14.257,1.818-31.087,3.3-44.584-4.424-8.943-5.114-1.6-12.3,6.394-11.988-10.091-1.212-22.9-9.116-25.713-19.515a4.453,4.453,0,0,1,3.178-5.4c.969-.26,5.34.5,6.3.4-8.63-2.923-25.322-21.659-18.219-30.886,6.489-8.43,18.158,4.624,23.348,7.741-2.942-4.671-3.985-12.71,2.779-13.05,9.688-.484,18.893,20.905,23.057,27.495.177-2.749-.044-10.026,2.4-11.314,5.25-2.772,22.864,6.062,23.977,33.574C-376.172,106.2-374.692,121.269-379.289,128.733Z" transform="translate(453.644 -31.58)" fill="#28c76f"/><path d="M-405.313,122.044c-10.024-5.619-21.541-12.682-26.539-24.068-3.309-7.543,4.825-8.664,9.819-4.658-5.908-5.585-10.374-16.76-7.232-24.78a3.562,3.562,0,0,1,4.614-1.957c.747.294,3.191,2.865,3.86,3.258-4.153-5.988-5.957-25.971,3-28.519,8.182-2.325,9.464,11.618,11.316,16.092.332-4.4,3.489-10.064,8-7.063,6.457,4.3,2.187,22.427,1.725,28.642,1.423-1.681,4.745-6.461,6.928-6.126,4.694.72,11.8,14.781-.579,32.987C-392.582,109.051-398.805,119.44-405.313,122.044Z" transform="translate(472.556 -41.061)" fill="#008454"/><path d="M-371.6,105.083c-2.471-11.223-4.853-24.522.325-35.825,3.433-7.488,9.68-2.16,10.009,4.234.241-8.125,5.617-18.893,13.7-21.88a3.562,3.562,0,0,1,4.531,2.143c.275.754-.017,4.289.133,5.051,1.71-7.084,15.436-21.72,23.293-16.726,7.178,4.565-2.38,14.794-4.491,19.152,3.509-2.68,9.836-4.086,10.592,1.277,1.081,7.682-15.294,16.547-20.244,20.335,2.2-.055,7.982-.752,9.183,1.1,2.583,3.983-3.188,18.645-25.02,21.5C-353.43,105.951-365.327,108.212-371.6,105.083Z" transform="translate(505.975 -34.452)" fill="#eaefee" opacity="0.5"/></g><g transform="matrix(0.94, 0.342, -0.342, 0.94, 84.954, 0)"><path d="M15.375,0A41.1,41.1,0,0,1,18.4,9.705c.526,3.258.707,6.576,1.516,9.775a42.12,42.12,0,0,0,3.2,8.126,1.743,1.743,0,0,1,.236.754,1.7,1.7,0,0,1-.868,1.22A23.52,23.52,0,0,1,0,32.257" transform="translate(31.347 12.364)" fill="#18394e"/><ellipse cx="6.275" cy="7.802" rx="6.275" ry="7.802" transform="translate(40.565 18.911)" fill="#98c7ad"/><path d="M11.67,6.962c-.593,3.336-1.083,7.12.988,9.8a3.674,3.674,0,0,1,1.077,1.9c.042.973-.887,1.687-1.757,2.122a13.871,13.871,0,0,1-10.959.568,1.8,1.8,0,0,1-.788-.481c-.443-.549-.158-1.354.114-2A24.147,24.147,0,0,0,.152,0" transform="translate(22.43 36.737)" fill="#e8a17e"/><path d="M7.431,2.53a19.834,19.834,0,0,0-.7,6.994.3.3,0,0,1-.042.236c-.076.082-.209.049-.313.011a9.688,9.688,0,0,1-2.221-1.02A9.9,9.9,0,0,1,1.09,5.3,10.217,10.217,0,0,1,.03,0" transform="translate(26.965 40.198)" fill="#d88d6c"/><path d="M26.585,0c2.376,2.654,2.931,6.432,3.243,9.982a41.006,41.006,0,0,1,0,9.4,17.135,17.135,0,0,1-3.545,8.6,13.157,13.157,0,0,1-2.96,2.621A7.566,7.566,0,0,1,20.841,31.7a9.994,9.994,0,0,1-5.095-.657c-3.756-1.218-7.623-2.865-9.943-6.06C2.781,20.82.785,9.859,0,4.774" transform="translate(15.521 12.818)" fill="#e8a17e"/><path d="M27.5.31A25.5,25.5,0,0,1,15.051,6.147,43.875,43.875,0,0,1,7,6.538a13.826,13.826,0,0,1-3-.293A5.5,5.5,0,0,1,.6,3.961,3.711,3.711,0,0,1,.548,0" transform="translate(19.335 15.739)" fill="#d88d6c"/><path d="M16.52,2.161c6.7-3.237,16.394-2.566,21.268.222s6.892,5.285,9.435,11.1a10.843,10.843,0,0,1,.9,2.84,1.025,1.025,0,0,1-.653.682c-6.02,2.3-11.312,2.711-17.746,3.03a22.375,22.375,0,0,1-6.4-.4c-2.952,9.886-1.413,16.971,3.5,26.042-3.2,1.349-15.638,2.124-21.557-2.46a14.2,14.2,0,0,1-3.849-4.276C-.937,34.646.073,29.348,1.354,24.62A47.676,47.676,0,0,1,5.113,14.375C7.771,9.446,11.38,4.381,16.52,2.161" transform="translate(0 0)" fill="#18394e"/><path d="M9.406,0a5.4,5.4,0,0,1-2.1,3.185,4.351,4.351,0,0,1-3.98.069A11.35,11.35,0,0,1,0,.24,37.754,37.754,0,0,0,9.406,0" transform="translate(30.268 35.566)" fill="#fff"/><path d="M1.041,0,2.852,5.55,0,5.781" transform="translate(34.915 26.713)" fill="#d88d6c"/><circle cx="2.452" cy="2.452" r="2.452" transform="translate(23.306 28.731)" fill="#f27b53" opacity="0.45"/><circle cx="2.066" cy="2.066" r="2.066" transform="translate(41.332 28.163)" fill="#f27b53" opacity="0.45"/><g transform="translate(15.39 33.371)"><g transform="translate(16.921 6.422)"><ellipse cx="1.474" cy="1.886" rx="1.474" ry="1.886" transform="translate(0 2.935) rotate(-84.487)" fill="#7aa58d"/></g><g transform="translate(0 0)"><path d="M15.527,8.362a18.889,18.889,0,0,0,2.551.074l-.032-.813C8.223,8.014.669.08.595,0L0,.557C.072.633,6.609,7.5,15.527,8.362Z" fill="#7aa58d"/></g></g><g transform="translate(9.245 0.4)"><g transform="translate(4.364 0)"><path d="M31.9,18.865C31.171,13.36,28.489,7.294,24.1,4.183A14.262,14.262,0,0,0,10.557,3.007C6.818,4.547,4.345,7.984,3.126,11.988A46.1,46.1,0,0,0,1.707,22.447c-.08,1.17-1.784,1.178-1.7,0A53.5,53.5,0,0,1,1.218,12.435C2.337,8.166,4.626,4.247,8.334,2.1a16.168,16.168,0,0,1,14.823-.576c3.708,1.829,6.419,5.395,8.14,9.293a28.178,28.178,0,0,1,2.247,7.557c.154,1.153-1.487,1.651-1.641.488Z" transform="translate(0 0)" fill="#98c7ad"/></g><ellipse cx="6.275" cy="7.802" rx="6.275" ry="7.802" transform="translate(0 20.529)" fill="#98c7ad"/></g></g><g transform="translate(42.02 58.691)"><path d="M-387.1,52.486c-8.218.348-17.11,2.828-23.126,8.438a4.218,4.218,0,0,0-1.231,1.655,4.875,4.875,0,0,0,.315,2.979,60.78,60.78,0,0,1,.543,34.73,50.612,50.612,0,0,0-2.2,8.941c-.289,3.06.319,6.375,2.435,8.605a11.517,11.517,0,0,0,3.231,2.27c6.578,3.324,14.3,3.2,21.667,2.9a57.975,57.975,0,0,0,13.5-1.668c4.371-1.242,8.569-3.59,11.225-7.277,2.741-3.8,3.6-8.637,3.947-13.312.79-10.619-.65-21.268-.849-31.913-.059-3.1.006-6.288,1.214-9.141a50.963,50.963,0,0,0-19.007-7.568,7.379,7.379,0,0,1-5.843,2.906,7.014,7.014,0,0,1-5.822-2.54" transform="translate(433.004 -52.119)" fill="#b5eec0"/><path d="M-410.376,96.707c.266-3.062-1.907-6.6-1.132-9.561,1.968-7.517,5.678-14.828,4.88-22.592a8.83,8.83,0,0,1,4.086,3.63,9.985,9.985,0,0,1,.916,4.519c.034,3.1-.543,6.179-.667,9.28s.266,6.367,2.012,8.905c2.015,2.931,5.49,4.409,8.879,5.317a67.376,67.376,0,0,0,6.935,1.4,28.589,28.589,0,0,0,8.089.431,11.087,11.087,0,0,0,7.139-3.564c2.8-3.33,2.716-8.165,3.22-12.526a39.187,39.187,0,0,1,4.234-13.719,8.14,8.14,0,0,1,2.671-3.3l.01-.006c.416,7.775,4.916,15.94,4.382,23.7-.321,4.677-5.049,9.116-7.579,12.919a18.906,18.906,0,0,1-10.366,7.279,49.848,49.848,0,0,1-12.465,1.668c-6.8.306-13.933.429-20.008-2.895a10.721,10.721,0,0,1-2.984-2.27C-410.08,103.08-410.642,99.767-410.376,96.707Z" transform="translate(434.069 -40.932)" fill="#28c76f"/><path d="M-376.376,54.992c-2.538,11.284-.351,24.6,2.468,35.815.838,3.332.661,6.985-.534,8.679-1.237,1.755-3.37,2.8-5.319,3.7a34.659,34.659,0,0,0-11.137,8.147,13.047,13.047,0,0,0-3.254,4.971,6.137,6.137,0,0,0,.849,5.687,6.617,6.617,0,0,0,5.144,2.08,25.127,25.127,0,0,0,5.636-.967,59.172,59.172,0,0,1,9.483-1.421,38.335,38.335,0,0,0,8.231-.965,15.807,15.807,0,0,0,9.021-7.2,18.882,18.882,0,0,0,2.352-11.386,39.381,39.381,0,0,0-1.294-6.2c-2.27-8.449-5.4-15.846-8.265-24.112a43.892,43.892,0,0,0-5.4-10.125c-2.067-2.922-4.455-6.107-7.984-6.709" transform="translate(449.536 -49.534)" fill="#b5eec0"/><path d="M-394.242,87.742s7.553-1.875,10.379-.256,7.118,3.982,6.991,6.989l0,1.233s-20.25.591-21.895-1.233" transform="translate(445.684 -20.895)" fill="#e8a17e"/><path d="M-394.59,54.545c-3.706.429-7.758,4.747-10.322,8.482a64.377,64.377,0,0,0-6.035,12.144l-9.69,23.519a38.606,38.606,0,0,0-2.494,7.465,19.315,19.315,0,0,0-.108,6.512,10.5,10.5,0,0,0,1.921,4.941c1.561,1.987,4.027,3,6.388,3.9,4.984,1.894,10.1,3.672,15.419,4.039a59.589,59.589,0,0,0,6.3-.01,118.581,118.581,0,0,0,17.334-1.484,2.638,2.638,0,0,0,1.166-.42,2.7,2.7,0,0,0,.714-1.066l1.721-3.765a4.554,4.554,0,0,0,.587-2.207,4.215,4.215,0,0,0-1.6-2.57,25.4,25.4,0,0,0-6.829-4.513c-5.142-2.308-11.016-2.885-15.848-5.788a7.493,7.493,0,0,1-1.624-1.237c-1.782-1.892-1.675-4.937-.676-7.334s1.7-4.686,2.68-7.093c2.181-5.349,3.271-8.841,3.391-13.413.171-6.51-.317-13.926-2.4-20.1" transform="translate(423.464 -49.937)" fill="#b5eec0"/></g></g><g transform="translate(150.95 9.463)"><path d="M467.4,31.889c1.046,1.937,1.05,3.961.013,4.521s-2.729-.553-3.775-2.488-1.05-3.961-.011-4.521S466.359,29.955,467.4,31.889Z" transform="translate(-450.87 -3.157)" fill="#212020"/><g transform="translate(0 0)"><path d="M470.343,91.567a9.667,9.667,0,0,0,2.537-.43c8.068-2.6,10.063-15.979,10.551-21.6.063-.916.112-1.621.125-2.047.018-.287.018-.446.018-.446,1.709-2.244-13.388-31.2-14.134-30.8-4.474,3.119-6.373,8.54-5.4,15.4,0,.141.011,9.031-.231,13.538-.007.307-.036.627-.047.949,0,0-.085.638-.184,1.7-.329,3.847-.867,13.379,1.321,19.118C465.95,89.76,467.663,91.657,470.343,91.567Z" transform="translate(-450.358 5.502)" fill="#e9e7e7"/><path d="M486.982,53.247c-.043.034-10.845,1.157-11.747,1.966-9.9,8.954-8.42,23.251-17.732,38.842,4.913,2.815,7.734.371,11.7,2.909C473.822,91.574,493.94,74.076,486.982,53.247Z" transform="translate(-457.503 26.573)" fill="#ededed"/><path d="M468.272,126.019l9.779-.374,41.526-1.6a175.965,175.965,0,0,1,1.6-19.786v-.011c1.131-6.075,2.533-13.807,3.462-21.844.067-.676.146-1.35.224-2.024,1.6-15.446,1.223-31.551-6.476-38.7-.154-.155-.334-.307-.513-.47a.058.058,0,0,1-.047-.025c-5.97-5.045-18.115-8.406-18.115-8.406l-21.559.141-2.555,1.791-5.627,3.975-2.353,1.684h-.025a.745.745,0,0,0-.271.168c-2.035,1.679-.676,12.3.464,25.341.255,2.967.5,6.053.7,9.2a3.38,3.38,0,0,1,.013.367C469.306,91.015,460.363,119.306,468.272,126.019Z" transform="translate(-448.235 1.21)" fill="#fec757"/><path d="M490.5,40.532l-5.983-14.647a95.279,95.279,0,0,1-15.213.764s.94,13.346.994,18.771C469.793,55.792,482.449,53.974,490.5,40.532Z" transform="translate(-442.882 -7.334)" fill="#f2c194"/><path d="M476.24,41.012l-6.026,8c-.981-2.425-2.333-6.5-1.863-9.1l4.707-5.121C472.716,37.756,473.1,40.049,476.24,41.012Z" transform="translate(-444.179 3.691)" fill="#ededed"/><path d="M471.821,45.069l7.642,8.726c5.143-5.119,10.457-14.537,11.778-19.441l-4.676-2.846C486.6,35.917,477.685,45.268,471.821,45.069Z" transform="translate(-439.76 -0.366)" fill="#ededed"/><g transform="translate(9.996)"><path d="M462.388,38.55a18.1,18.1,0,0,0,.649,2.253c.128.354.271.734.425,1.1.011.027.025.038.025.052v.013c.361.82.773,1.655,1.247,2.515.2.175.421.338.611.477a13.261,13.261,0,0,0,1.122.817l1.209,6.621a1.809,1.809,0,0,0,2.356,1.393l1.619-.468c.358.555,1.308,2.2,2.051,3.486.54.947.963,1.693.963,1.693a12.9,12.9,0,0,0,1.559,1.917c1.749,1.751,4.178,3.041,6.451,1.352.139-.1.264-.2.4-.307a.953.953,0,0,0,.188-.155c4.391-3.363,6.664-6.749,7.009-10.327.3-2.893-.687-5.916-2.826-9.149-.217-.34-.448-.667-.69-1.01a8.339,8.339,0,0,1,1.073-.717c.24-.155.493-.307.757-.461,2.047-1.18,4.548-2.49,4.893-4.178a2.217,2.217,0,0,0,.007-.71c-.594-3.61-1.388-4.859-3.209-8.093-9.223-14.141-16.263-7.107-21.606-3.865a15.382,15.382,0,0,0-4.884,5.168,13.438,13.438,0,0,0-1.809,6.478A15,15,0,0,0,462.388,38.55Z" transform="translate(-461.967 -16.906)" fill="#ffcfa1"/><path d="M495.421,42.929c-6.2,6.509-9.743-6.433-9.743-6.433a57.142,57.142,0,0,0-7.161,2.058c1.458-13.4-4.149-20.478-15.186-9.857-2.884-.79.553-6.675,7.658-9.34,7.909-2.969,15.027-2.526,20.314,4.062C494.629,27.562,500.379,35.932,495.421,42.929Z" transform="translate(-461.542 -17.6)" fill="#323031"/><path d="M469.12,31.035c1.046,1.937,1.05,3.961.011,4.521s-2.727-.553-3.773-2.49-1.05-3.959-.011-4.519S468.074,29.1,469.12,31.035Z" transform="translate(-458.741 -4.215)" fill="#212020"/><rect width="15.256" height="1.161" transform="translate(9.03 25.912) rotate(-32.531)" fill="#212020"/><path d="M476.885,26.948c1.364,2.266,1.028,6.03-.452,6.924s-2.75-.936-4.138-3.186c-.918-1.489-2.253-3.5-.914-4.949C472.552,24.465,474.883,23.625,476.885,26.948Z" transform="translate(-451.004 -8.906)" fill="#ffcfa1"/><path d="M464.464,32.189,463.32,32a2.72,2.72,0,0,1,3.9-1.982l-.519,1.037a1.561,1.561,0,0,0-2.237,1.138Z" transform="translate(-460.291 -2.566)" fill="#212020"/></g><path d="M472.061,110.72l40.749-.266c-.4-15.726-1.285-46.668-2.662-63.327l-13.578-2.759,3.585,23.749C501.762,86.547,492.622,106.96,472.061,110.72Z" transform="translate(-439.462 15.569)" fill="#1d1d1b" opacity="0.1"/><g transform="translate(33.933 41.803)"><path d="M491.089,81.416s-7.949-25.52-8.314-29.972a16.28,16.28,0,0,1,4.342-12.04c2.913-3.24,6.836-4.3,10.2-1.588a17.075,17.075,0,0,1,5.531,8.89c2.6,11.478,7.629,32.538,7.566,32.959C503.74,76.219,491.089,81.416,491.089,81.416Z" transform="translate(-460.179 -36.269)" fill="#ededed"/><path d="M385.03,86.027l3.962,5.47c20.431-4.256,47.8,1.261,46.428-19.832-.426-26.39-15.1-11.8-19.6-6.19C410.2,74.417,383.248,69.818,385.03,86.027Z" transform="translate(-384.946 -21.175)" fill="#ededed"/></g></g></g><g transform="translate(56.782 80.718)"><rect width="92.108" height="2.291" rx="0.206" transform="translate(92.108 54.56) rotate(-180)" fill="#008454"/><path d="M-387.659,118.274h78.583l3.8-54.56h-77.008Z" transform="translate(439.349 -63.714)" fill="#008454"/><g transform="translate(54.362)"><path d="M-386.252,118.274h78.582l3.8-54.56h-77.008Z" transform="translate(386.252 -63.714)" fill="#f9fbff"/><circle cx="4.693" cy="4.693" r="4.693" transform="translate(36.497 22.587)" fill="#eaefee"/><path d="M-304.533,68.679l-3.136,45.083h-78.583l1.049-10.657A162.469,162.469,0,0,0-304.533,68.679Z" transform="translate(386.252 -59.248)" fill="#eaefee"/></g></g><g transform="translate(237.523 71.608)"><g transform="translate(0 40.482)"><path d="M-340.479,92.369c1.468,1.81,4.21,2.87,7.306,2.927l.653,5.072h12.22l1.079-6.354c-3.71-.222-10.484-1.915-15.905-10.395-2.479.376-5.25,1.4-6.187,4.069A4.727,4.727,0,0,0-340.479,92.369Zm2.017-3.681c.467-1.332,2.348-1.909,4.162-2.129l.737,5.71a6.4,6.4,0,0,1-4.571-1.8A1.738,1.738,0,0,1-338.462,88.687Z" transform="translate(341.6 -77.181)" fill="#f38a8a"/><path d="M-338.048,86.668c.146-.021.3-.049.441-.068l-.739-5.731a.566.566,0,0,1,.56-.638h17.754a.633.633,0,0,1,.623.737l-2.734,16.1C-325.853,96.84-332.627,95.148-338.048,86.668Z" transform="translate(344.522 -80.23)" fill="#efcdcd"/></g><path d="M-331.485,97.021c1.765-.938,3.448-4.32,4.143-5.883a5.883,5.883,0,0,0,.127-4.964c-.65-1.292-1.9-2.181-2.675-3.4a5.518,5.518,0,0,1-.678-4.295c.528-2.034,2.2-3.657,2.58-5.723.448-2.424-.959-4.755-1.577-7.142a11.4,11.4,0,0,1,.317-6.694c-1.723,1.024-2.753,2.87-3.7,4.633-.868,1.611-1.761,3.332-1.636,5.155a11.991,11.991,0,0,0,.961,3.3,10.336,10.336,0,0,1,.707,6.1c-.786,3.047-3.788,5.429-3.67,8.573a6.615,6.615,0,0,0,2.734,4.681,11.6,11.6,0,0,1,2.709,2.409c.665,1.016.688,2.6-.34,3.25" transform="translate(346.106 -58.919)" fill="#eaefee"/></g></g><g transform="translate(103.255 0)"><g transform="translate(0)"><path d="M0,37.613C0,28,7.23,19.789,17.405,16.558A19.027,19.027,0,0,1,35.086,3.769a18.083,18.083,0,0,1,9.02,2.409A18.432,18.432,0,0,1,57.8,0c8.751,0,16.117,6.267,18.3,14.787a18.092,18.092,0,0,1,2.738-.209c10.474,0,18.964,8.975,18.964,20.046s-8.49,20.047-18.964,20.047a18.006,18.006,0,0,1-6.267-1.122c-1.866,9-9.449,15.734-18.522,15.734a18.867,18.867,0,0,1-16.831-10.8,31.431,31.431,0,0,1-8.046,1.588L21.231,71.519,18.417,58.972C7.712,55.975,0,47.545,0,37.613Z" transform="translate(0)" fill="#fff" stroke="#28c76f" stroke-width="0.5"/></g><g transform="translate(3.987 3.99)"><path d="M0,33.015c0-8.223,8.074-16.093,17.278-18.857A17.168,17.168,0,0,1,41.428,5.283a17.158,17.158,0,0,1,28.939,7.362,17.276,17.276,0,0,1,2.476-.178c9.474,0,18.842,7.5,18.079,20.549S75.514,50.635,67.5,47.736c-.763,9.23-9.188,13.6-17.395,13.6-6.62,0-12.05-5.842-14.91-11.332A57.162,57.162,0,0,1,25.146,52.22l-7.183,9.792L15.418,51.283C5.736,48.72,0,41.509,0,33.015Z" transform="translate(0 0)" fill="#f2f2f2"/></g><g transform="translate(9.765 4.753)" clip-path="url(#c)"><g transform="translate(11.566 5.681)"><path d="M8.111,24.988c-2.172,0-4.344-.034-6.515.016-.825.019-1.049-.289-1.01-1.06.054-1.083.005-2.171.016-3.257a3.52,3.52,0,0,1,3.414-3.755c.257-.028.62.15.736-.239.11-.366-.24-.463-.452-.642a6.551,6.551,0,0,1-1.423-1.539c-.491-.8-.784-1.657-1.858-2.084C-.022,12.013-.12,10.492.577,9.508A1.8,1.8,0,0,0,.508,7.133a2.2,2.2,0,0,1-.5-1.414C.014,4.09.031,2.46,0,.832-.011.206.212,0,.834,0c3.066.022,6.133-.022,9.2.033a15.362,15.362,0,0,0,2.343.032,3.228,3.228,0,0,1,3.311,3.157c.077,1.241.02,2.49.03,3.736a.851.851,0,0,1-.388.819c-.727.437-.495,1.015-.165,1.53,1.025,1.6.666,2.864-1.1,3.534a.839.839,0,0,0-.518.6,5.918,5.918,0,0,1-2.005,2.627c-.239.175-.516.329-.381.675.125.319.442.172.673.183,2.088.1,3.329.847,3.739,2.5a22.67,22.67,0,0,1,.151,5.149c.008.515-.483.41-.814.411C12.646,24.993,10.379,24.989,8.111,24.988Z" fill="#3762cb"/><path d="M10.414.005c1.948,0,3.9-.007,5.843,0a2.582,2.582,0,0,1,2.864,2.834q.032,4.167,0,8.334A2.579,2.579,0,0,1,16.249,14c-3.289.009-6.579.046-9.866-.016-1.384-.026-2.5.688-3.73,1.07-.577.178-1.119.472-1.7.64-.732.212-1.1-.189-.9-.929a.794.794,0,0,1,.054-.183C1.8,11.545,1.74,8.23,1.634,4.907c-.024-.734-.024-1.469,0-2.2A2.608,2.608,0,0,1,4.379.01C6.391-.01,8.4.006,10.414.005Z" transform="translate(15.083 0.005)" fill="#3762cb"/><path d="M6.137.809a.767.767,0,0,1-.116.281A12.043,12.043,0,0,1,3.286,3.15a.615.615,0,0,1-.542-.057Q1.532,2.246.361,1.341a.664.664,0,0,1-.21-1A.765.765,0,0,1,1.326.217c.5.365.957.889,1.632.314C3.85,1.167,4.433.4,5.13.076A.737.737,0,0,1,6.137.809Z" transform="translate(45.547 14.678)" fill="#bdcdd6"/><path d="M6.133,2.367a.765.765,0,0,1-1.082.745A4,4,0,0,0,3.069,2.54a3.661,3.661,0,0,0-1.881.543.731.731,0,0,1-1.017-.2.613.613,0,0,1,.1-.934c.8-.633,1.621-1.23,2.443-1.83A.563.563,0,0,1,3.35.08a16.428,16.428,0,0,1,2.6,1.934A1.115,1.115,0,0,1,6.133,2.367Z" transform="translate(5.721 26.265)" fill="#bdcdd6"/><path d="M1.219.021c.691-.043,1.256-.074,1.4.5a2.33,2.33,0,0,1-.111,1.851c-.162.262-.518.45-.741.263A14.267,14.267,0,0,1,.075.953C-.114.731.086.41.32.2.648-.095,1.048.039,1.219.021Z" transform="translate(46.689 4.063)" fill="#bdcdd6"/><path d="M1.257,2.685C.912,2.694.347,2.77.164,2.213A2.292,2.292,0,0,1,.221.375C.541-.2,1.248-.088,1.555.556c.088.186-.042.5.251.557.551.106,1,.3.905.964C2.646,2.534,2.262,2.689,1.257,2.685Z" transform="translate(7.972 37.405)" fill="#bdcdd6"/><path d="M1.54,1.789c-.043.531.221,1.441-.765,1.44S.044,2.32.009,1.691C-.006,1.406,0,1.12.011.835.03.312.29-.008.832,0s.683.384.7.837C1.551,1.122,1.54,1.407,1.54,1.789Z" transform="translate(8.026 33.55)" fill="#bdcdd6"/><path d="M0,1.456C.052.947-.232.027.729,0c1.057-.029.758.935.8,1.583a5.937,5.937,0,0,1,0,.852c-.034.469-.271.789-.768.784s-.73-.322-.754-.8C-.007,2.14,0,1.855,0,1.456Z" transform="translate(8.032 29.591)" fill="#bdcdd6"/><path d="M1.54,1.722c-.069.539.265,1.463-.748,1.481S.05,2.307.008,1.681c-.017-.253,0-.509,0-.764C.007.4.22.014.759,0s.774.362.78.881C1.543,1.136,1.54,1.391,1.54,1.722Z" transform="translate(47.852 7.354)" fill="#bdcdd6"/><path d="M1.568,1.576c-.084.647.259,1.633-.819,1.6-.97-.03-.722-.962-.714-1.587C.043.945-.255-.031.835,0,1.838.03,1.477.971,1.568,1.576Z" transform="translate(47.836 11.385)" fill="#bdcdd6"/><path d="M1.34,1.557C.936,1.545.5,1.644.2,1.263A.672.672,0,0,1,.264.254a2.41,2.41,0,0,1,2.148,0,.671.671,0,0,1,.07,1.008C2.175,1.641,1.743,1.545,1.34,1.557Z" transform="translate(43.26 4.044)" fill="#bdcdd6"/><path d="M1.34,1.557C.936,1.545.5,1.644.2,1.263A.672.672,0,0,1,.264.254a2.41,2.41,0,0,1,2.148,0,.671.671,0,0,1,.07,1.008C2.175,1.641,1.743,1.545,1.34,1.557Z" transform="translate(39.278 4.044)" fill="#bdcdd6"/><path d="M1.34,1.557C.936,1.545.5,1.644.2,1.263A.672.672,0,0,1,.264.254a2.41,2.41,0,0,1,2.148,0,.671.671,0,0,1,.07,1.008C2.175,1.641,1.743,1.545,1.34,1.557Z" transform="translate(35.297 4.044)" fill="#bdcdd6"/><path d="M1.3,0a3.234,3.234,0,0,1,.754.048.705.705,0,0,1,.586.845c-.2.821-.894.626-1.474.654C.622,1.573.113,1.494.01.851A.713.713,0,0,1,.642.038,2.934,2.934,0,0,1,1.3.029Z" transform="translate(18.134 38.544)" fill="#bdcdd6"/><path d="M1.559,0a4.618,4.618,0,0,1,.9.048c.473.119.827.407.7.845-.235.821-1.069.626-1.764.654C.744,1.573.135,1.494.012.851-.071.416.277.136.768.038A4.2,4.2,0,0,1,1.558.029Z" transform="translate(14.153 38.544)" fill="#bdcdd6"/><path d="M1.126,0a2.426,2.426,0,0,1,.652.048.7.7,0,0,1,.507.845c-.17.821-.773.626-1.275.654-.473.026-.912-.053-1-.7A.7.7,0,0,1,.555.038,2.194,2.194,0,0,1,1.126.029Z" transform="translate(11.092 38.544)" fill="#bdcdd6"/><path d="M5.353.343c.862,0,1.724-.007,2.587,0A3.289,3.289,0,0,0,9.16.148,4.369,4.369,0,0,1,11.449.16a.794.794,0,0,1,.671.956.765.765,0,0,0,.739.921,1.172,1.172,0,0,1,1.06,1.269,1.233,1.233,0,0,1-1.23,1.237c-.506.028-.636.334-.777.7A4.957,4.957,0,0,1,6.95,8.827,4.955,4.955,0,0,1,2.031,5.316c-.169-.441-.336-.733-.91-.79A1.213,1.213,0,0,1,0,3.293a1.11,1.11,0,0,1,.97-1.228c.588-.1.832-.382.748-.971S1.892.306,2.48.331C3.436.372,4.4.342,5.353.343Z" transform="translate(0.979 7.529)" fill="#f8cece"/><path d="M6.751,6.539c-1.98,0-3.96-.023-5.939.013C.181,6.564-.027,6.369,0,5.74c.046-.988-.008-1.98.019-2.969a2.606,2.606,0,0,1,2-2.6C2.7.007,3.481-.345,3.508.946c.01.507.554.739,1.086.74,1.309,0,2.618.007,3.927,0A1.076,1.076,0,0,0,9.749.622c.024-.542.273-.6.72-.609a2.786,2.786,0,0,1,3.157,3c.007.926-.029,1.853.013,2.777.027.586-.168.772-.757.763C10.838,6.52,8.795,6.539,6.751,6.539Z" transform="translate(1.352 17.673)" fill="#f8a6a6"/><path d="M4.993.011C6.334.011,7.676.039,9.016,0a1.164,1.164,0,0,1,1.335,1.265c.049,1.019.054,2.045,0,3.064A2.031,2.031,0,0,1,8.144,6.337q-3.257.008-6.514,0C.524,6.334.017,5.817.012,4.7.006,3.389.034,2.079,0,.771-.014.182.2-.011.778,0,2.182.032,3.588.011,4.993.011Z" transform="translate(0.767 0.767)" fill="#4670c5"/><path d="M.012,2.9c0-.668-.013-1.337,0-2C.035.049.374-.17,1.176.123a2.8,2.8,0,0,1,1.9,2.607c.028.954-.022,1.911.016,2.864.024.6-.221.8-.786.752-.316-.028-.638.019-.954-.01A1.317,1.317,0,0,1,.021,5C-.021,4.3.012,3.6.012,2.9Z" transform="translate(11.888 0.764)" fill="#4670c5"/><path d="M.083,0A6.309,6.309,0,0,0,4.8,0c.019.25.038.405.041.56.023,1.267.022,1.268-1.222,1.27-.826,0-1.657-.054-2.478.015C.283,1.922-.121,1.658.032.755.068.541.063.321.083,0Z" transform="translate(5.513 16.759)" fill="#f5cdce"/><path d="M0,14.155c.2-.537.31-.9.467-1.245A11.638,11.638,0,0,0,1.6,7.173c-.112-1.686-.033-3.385-.018-5.078A1.887,1.887,0,0,1,3.651.008q5.942-.016,11.884,0A1.752,1.752,0,0,1,17.5,1.942q.019,4.265,0,8.53A1.778,1.778,0,0,1,15.5,12.463c-2.907.008-5.816.063-8.721-.021a10.326,10.326,0,0,0-4.725.927C1.445,13.647.806,13.849,0,14.155Z" transform="translate(15.899 0.775)" fill="#c8dbe6"/><path d="M1.157,1.064c0,.458.007.984-.645.93S.029,1.364.006.945C-.019.478,0-.054.633,0,1.235.06,1.15.622,1.157,1.064Z" transform="translate(10.347 9.141)" fill="#3b64ca"/><path d="M.008,1.048C-.018.5-.011,0,.544,0c.69,0,.6.6.606,1.073.005.421.02.914-.56.92C-.168,2,.047,1.373.008,1.048Z" transform="translate(4.403 9.143)" fill="#3c64cb"/><path d="M1.5,1.135A1.6,1.6,0,0,1,.193.674C.041.512-.112.3.116.093c.2-.186.306,0,.461.123A1.434,1.434,0,0,0,2.492.234c.143-.111.268-.354.455-.164.22.224.1.488-.107.668A1.8,1.8,0,0,1,1.5,1.135Z" transform="translate(6.39 12.882)" fill="#4167cb"/><path d="M2.678,1.314A1.454,1.454,0,0,1,1.336,2.673,1.414,1.414,0,0,1,0,1.242,1.21,1.21,0,0,1,1.359,0,1.263,1.263,0,0,1,2.678,1.314Z" transform="translate(19.568 5.748)" fill="#695ef8"/><path d="M2.676,1.312A1.407,1.407,0,0,1,1.345,2.67,1.454,1.454,0,0,1,0,1.3,1.262,1.262,0,0,1,1.352,0,1.24,1.24,0,0,1,2.676,1.312Z" transform="translate(24.184 5.749)" fill="#695ef8"/><path d="M0,1.265A1.173,1.173,0,0,1,1.315,0,1.176,1.176,0,0,1,2.544,1.35,1.242,1.242,0,0,1,1.229,2.659,1.249,1.249,0,0,1,0,1.265Z" transform="translate(28.943 5.75)" fill="#695ef8"/><g transform="translate(21.16 19.019)"><path d="M7.967,25.089c-2.2,0-4.409-.025-6.613.014-.768.014-1.018-.272-.987-1.009C.422,22.787.339,21.47.455,20.17a3.309,3.309,0,0,1,3.358-3.142c.313-.018.766.212.919-.252.146-.442-.318-.554-.554-.789a7.916,7.916,0,0,1-1.043-1.114A6.088,6.088,0,0,0,.961,12.411,1.857,1.857,0,0,1,.608,9.557c.467-.617.867-1.174-.184-1.61A.645.645,0,0,1,.086,7.4C-.485,2.938,1.822-.012,5.951.066,7.137.088,8.388-.269,9.5.479c.054.036.169,0,.251-.028A4.663,4.663,0,0,1,15.857,4.7c.039.8.011,1.6.019,2.4a.868.868,0,0,1-.513.937c-.784.311-.519.846-.225,1.291,1.115,1.692.834,2.724-1.051,3.583a.892.892,0,0,0-.491.539,5.781,5.781,0,0,1-2.055,2.7c-.212.153-.422.313-.347.618.088.36.394.248.63.263,2.533.168,3.68,1.366,3.7,3.887.01,1.086-.033,2.174.013,3.258.03.73-.265.935-.958.925C12.376,25.069,10.171,25.089,7.967,25.089Z" transform="translate(19.287 0)" fill="#3762cb"/><path d="M8,1.8c.384,0,.769-.027,1.15,0A15.693,15.693,0,0,0,17.683.286c.4-.2.877-.5,1.32-.05.418.426.1.862-.083,1.236a14.574,14.574,0,0,0-1.452,7.689c.1,1.27.024,2.554.013,3.832a2.56,2.56,0,0,1-2.635,2.785q-6.085.064-12.172,0A2.55,2.55,0,0,1,.015,13.019q-.027-4.265,0-8.53A2.523,2.523,0,0,1,2.724,1.8C4.481,1.777,6.238,1.8,8,1.8Z" transform="translate(0 9.293)" fill="#3862cb"/><path d="M8.388,0a3.019,3.019,0,0,0,3.04,1.734c.457-.031.746.068.683.614-.065.569.148.843.777.936a1.119,1.119,0,0,1,.964,1.323,1.1,1.1,0,0,1-1.071,1.133c-.553.04-.735.326-.909.795a5.187,5.187,0,0,1-9.878.024A1.058,1.058,0,0,0,1,5.728a1.108,1.108,0,0,1-1-1.2A1.09,1.09,0,0,1,.949,3.29c.7-.088.859-.425.8-1.017-.04-.425.164-.559.564-.541.477.022.956,0,1.435,0C6.391,1.74,6.5,1.7,8.388,0Z" transform="translate(20.328 6.345)" fill="#f8cece"/><path d="M6.848,6.565c-1.977,0-3.955-.031-5.931.016C.186,6.6-.033,6.352,0,5.649.063,4.537-.037,3.418.113,2.306A2.713,2.713,0,0,1,3.241.038c.416.072.4.338.447.606a1.1,1.1,0,0,0,1.277.994c1.243-.024,2.488-.028,3.731,0,.761.018,1.246-.266,1.324-1.043.047-.465.278-.545.691-.557a2.619,2.619,0,0,1,2.908,2.7c.029.988-.028,1.979.021,2.965.033.664-.187.884-.861.87C10.8,6.54,8.826,6.565,6.848,6.565Z" transform="translate(20.402 17.761)" fill="#f8a6a6"/><path d="M3.068,6.552c-.733,0-1.468-.04-2.2.012-.694.049-.836-.242-.861-.884C-.054,4,.139,2.471,1.538,1.273A5.465,5.465,0,0,1,4.576.055,18.626,18.626,0,0,1,7.153.038C7.9.053,8.339.369,8.285,1.213c-.048.761-.007,1.528-.011,2.292A3,3,0,0,1,5.266,6.549C4.534,6.566,3.8,6.552,3.068,6.552Z" transform="translate(20.134 0.741)" fill="#4670c5"/><path d="M0,2.729C0,2.091,0,1.454.007.817A.791.791,0,0,1,.963,0,4.308,4.308,0,0,1,5.005,4.262c-.069,2.211-.012,2.212-2.2,2.212-.287,0-.574.011-.86,0A1.952,1.952,0,0,1,0,4.449C0,3.876,0,3.3,0,2.729Z" transform="translate(29.366 0.818)" fill="#4670c5"/><path d="M2.5,1.735c-.447,0-.894,0-1.341,0-1,0-1.331-.459-1.068-1.431C.223-.2.5.072.748.14a6.536,6.536,0,0,0,3.5.016c.26-.069.707-.407.679.195C4.9.828,5.356,1.609,4.41,1.72A16.888,16.888,0,0,1,2.5,1.735Z" transform="translate(24.738 16.89)" fill="#f5ccce"/><path d="M17.5,0a5.31,5.31,0,0,1-.2.595,15.71,15.71,0,0,0-1.373,8.274c.061,1.082.021,2.17.006,3.255A1.835,1.835,0,0,1,14,14.149q-6.032.037-12.066,0A1.808,1.808,0,0,1,.009,12.137Q-.008,7.924.01,3.71a1.761,1.761,0,0,1,2-2.006c2.617-.015,5.24-.111,7.85.026A13.385,13.385,0,0,0,16.244.48C16.591.322,16.956.205,17.5,0Z" transform="translate(0.781 10.173)" fill="#c8dbe6"/><path d="M1.713,1.365A1.85,1.85,0,0,1,.17.778C-.006.569-.093.311.148.1.347-.074.529.017.72.2a1.218,1.218,0,0,0,1.849.01C2.792,0,2.977-.108,3.2.149s.068.495-.106.68A1.769,1.769,0,0,1,1.713,1.365Z" transform="translate(25.605 12.837)" fill="#3c65ca"/><path d="M1.218,1.034c-.029.448-.036,1-.621.989s-.627-.55-.586-1S-.067-.052.661,0C1.264.049,1.193.6,1.218,1.034Z" transform="translate(29.629 9.22)" fill="#4167ca"/><path d="M0,1.075C.032.583-.038.028.587,0c.679-.03.57.552.576.979S1.265,2,.633,2.018C.025,2.036.047,1.467,0,1.075Z" transform="translate(23.664 9.221)" fill="#4167cb"/><path d="M3.12,2.67c.242-1.327.556-1.515,1.809-1.44,1.033.062,2.09-.114,3.1.033.727.1,1.081.057,1.37-.678A1.012,1.012,0,0,1,10.879.143a1.03,1.03,0,0,1,.645,1.331,42.7,42.7,0,0,0-1.583,6.18C9.7,8.7,8.9,9.59,9.088,10.78c.043.273-.243.423-.535.423q-1.868,0-3.736,0c-.52,0-.692-.327-.612-.756a2.674,2.674,0,0,0-1.064-2.5C1.588,6.425.99,4.359.087,2.473c-.3-.63.241-.951.769-1.049A1.863,1.863,0,0,1,3.12,2.67Z" transform="translate(2.552 12.222)" fill="#3862cb"/><path d="M5.323,4.621c.622,0,1.133-.032,1.639.007.824.065,1.222-.3,1.161-1.108A7.472,7.472,0,0,1,8.9.49C9.018.16,9.2-.125,9.6.057c.354.162.239.487.126.75A22.131,22.131,0,0,0,8.337,6.355,1.641,1.641,0,0,1,6.5,7.906c-.606.012-1.214-.026-1.82-.014a1.661,1.661,0,0,1-1.2-.512,15.555,15.555,0,0,1-3.366-5.5c-.061-.138-.206-.3-.028-.419A.621.621,0,0,1,.532,1.4a1.119,1.119,0,0,1,.768.661c.209.464.472.908.643,1.385a1.5,1.5,0,0,0,1.679,1.2c.719-.046,1.126.512,1.312,1.183.082.294.034.751.484.671.505-.09.309-.559.259-.873A6.208,6.208,0,0,0,5.323,4.621Z" transform="translate(3.53 13.027)" fill="#f7cdce"/><path d="M1.717.091C2.071.067,2.481.049,2.889.009c.3-.029.5.023.493.38,0,.31-.03.578-.437.577-.853,0-1.706,0-2.559,0C.032.962,0,.723,0,.447c0-.3.071-.483.431-.441C.838.053,1.25.062,1.717.091Z" transform="translate(7.515 21.714)" fill="#ebc7ce"/><path d="M0,1.294C.276.866-.349.024.484,0c.973-.028.439.863.467,1.312.027.423.434,1.25-.4,1.273C-.476,2.612.344,1.683,0,1.294Z" transform="translate(6.488 14.259)" fill="#ecc7cd"/><path d="M.964,1.448C.738,1.775,1.395,2.635.5,2.631c-.872,0-.315-.823-.441-1.262A2.451,2.451,0,0,1,.052.611C.064.34-.016.017.437,0s.53.247.527.6C.962.859.964,1.113.964,1.448Z" transform="translate(9.938 14.214)" fill="#e9c6cd"/><path d="M.008,1.323a4.478,4.478,0,0,1,0-.571C.05.448-.166-.019.437,0,.944.017.819.414.831.706c.017.413.017.827,0,1.239-.013.287.124.674-.393.7C-.1,2.67.026,2.285.011,1.99,0,1.768.008,1.546.008,1.323Z" transform="translate(8.266 14.23)" fill="#f6cdce"/></g></g></g></g><g transform="translate(65.02 19.208)"><g transform="translate(8.119)"><rect width="0.29" height="4.314" fill="#28c76f"/></g><g transform="translate(8.119 12.2)"><rect width="0.29" height="4.314" transform="translate(0 0)" fill="#28c76f"/></g><g transform="translate(10.952 2.316)"><rect width="4.315" height="0.29" transform="translate(0 3.05) rotate(-44.978)" fill="#28c76f"/></g><g transform="translate(2.318 10.943)"><rect width="4.316" height="0.29" transform="translate(0 3.05) rotate(-44.978)" fill="#28c76f"/></g><g transform="translate(12.21 8.112)"><rect width="4.317" height="0.29" transform="translate(0 0)" fill="#28c76f"/></g><g transform="translate(0 8.112)"><rect width="4.317" height="0.29" transform="translate(0 0)" fill="#28c76f"/></g><g transform="translate(10.952 10.943)"><rect width="0.29" height="4.315" transform="translate(0 0.205) rotate(-45.023)" fill="#28c76f"/></g><g transform="translate(2.318 2.316)"><rect width="0.29" height="4.315" transform="matrix(0.707, -0.707, 0.707, 0.707, 0, 0.205)" fill="#28c76f"/></g></g><g transform="translate(187.355 80.474)"><g transform="translate(6.012)"><rect width="0.215" height="3.194" fill="#28c76f"/></g><g transform="translate(6.012 9.034)"><rect width="0.215" height="3.194" transform="translate(0 0)" fill="#28c76f"/></g><g transform="translate(8.11 1.715)"><rect width="3.196" height="0.215" transform="translate(0 2.259) rotate(-44.978)" fill="#28c76f"/></g><g transform="translate(1.716 8.103)"><rect width="3.196" height="0.215" transform="translate(0 2.259) rotate(-44.978)" fill="#28c76f"/></g><g transform="translate(9.042 6.007)"><rect width="3.197" height="0.215" transform="translate(0 0)" fill="#28c76f"/></g><g transform="translate(0 6.007)"><rect width="3.197" height="0.215" transform="translate(0 0)" fill="#28c76f"/></g><g transform="translate(8.11 8.103)"><rect width="0.215" height="3.195" transform="translate(0 0.152) rotate(-45.023)" fill="#28c76f"/></g><g transform="translate(1.716 1.715)"><rect width="0.215" height="3.196" transform="matrix(0.707, -0.707, 0.707, 0.707, 0, 0.152)" fill="#28c76f"/></g></g><g transform="translate(297.644 119.316)"><g transform="translate(8.119)"><rect width="0.29" height="4.314" fill="#28c76f"/></g><g transform="translate(8.119 12.2)"><rect width="0.29" height="4.314" transform="translate(0 0)" fill="#28c76f"/></g><g transform="translate(10.952 2.316)"><rect width="4.315" height="0.29" transform="translate(0 3.05) rotate(-44.978)" fill="#28c76f"/></g><g transform="translate(2.318 10.943)"><rect width="4.316" height="0.29" transform="translate(0 3.05) rotate(-44.978)" fill="#28c76f"/></g><g transform="translate(12.21 8.112)"><rect width="4.317" height="0.29" transform="translate(0 0)" fill="#28c76f"/></g><g transform="translate(0 8.112)"><rect width="4.317" height="0.29" transform="translate(0 0)" fill="#28c76f"/></g><g transform="translate(10.952 10.943)"><rect width="0.29" height="4.315" transform="translate(0 0.205) rotate(-45.023)" fill="#28c76f"/></g><g transform="translate(2.318 2.316)"><rect width="0.29" height="4.315" transform="matrix(0.707, -0.707, 0.707, 0.707, 0, 0.205)" fill="#28c76f"/></g></g><circle cx="2.64" cy="2.64" r="2.64" transform="translate(40.97 95.096)" fill="#eaefee"/><circle cx="2.64" cy="2.64" r="2.64" transform="translate(192.448 127.54)" fill="#eaefee"/><circle cx="3.625" cy="3.625" r="3.625" transform="translate(276.412 111.808)" fill="#eaefee"/><circle cx="1.655" cy="1.655" r="1.655" transform="translate(99.7 38.135)" fill="#eaefee"/><circle cx="1.655" cy="1.655" r="1.655" transform="translate(223.381 77.4)" fill="#eaefee"/><rect width="303.524" height="4.896" rx="2.448" transform="translate(342.122 223.582) rotate(-180)" fill="#93ccad"/></g><rect width="364.916" height="236.136" transform="translate(7.159)" fill="none"/></g></g><rect width="585" height="336" transform="translate(-16391 2324)" fill="red" opacity="0"/></g></svg>